<mxfile host="65bd71144e">
    <diagram id="UNSx2btAo0ZZDOVmfN6j" name="Page-1">
        <mxGraphModel dx="600" dy="531" grid="1" gridSize="10" guides="1" tooltips="1" connect="1" arrows="1" fold="1" page="1" pageScale="1" pageWidth="850" pageHeight="1100" math="0" shadow="0">
            <root>
                <mxCell id="0"/>
                <mxCell id="1" parent="0"/>
                <mxCell id="2" style="edgeStyle=none;html=1;exitX=0.5;exitY=0.5;exitDx=0;exitDy=0;exitPerimeter=0;entryX=0;entryY=0.5;entryDx=0;entryDy=0;fontSize=7;" edge="1" parent="1" source="14" target="7">
                    <mxGeometry relative="1" as="geometry"/>
                </mxCell>
                <mxCell id="3" style="edgeStyle=none;html=1;exitX=0.5;exitY=0.5;exitDx=0;exitDy=0;exitPerimeter=0;entryX=0;entryY=0.5;entryDx=0;entryDy=0;fontSize=7;" edge="1" parent="1" source="4" target="10">
                    <mxGeometry relative="1" as="geometry"/>
                </mxCell>
                <mxCell id="4" value="Amazon Amplify" style="shape=umlActor;verticalLabelPosition=bottom;verticalAlign=top;html=1;fillColor=none;" vertex="1" parent="1">
                    <mxGeometry x="50" y="135" width="30" height="60" as="geometry"/>
                </mxCell>
                <mxCell id="5" style="edgeStyle=none;html=1;exitX=1;exitY=0.5;exitDx=0;exitDy=0;entryX=0.5;entryY=0.5;entryDx=0;entryDy=0;entryPerimeter=0;fontSize=7;" edge="1" parent="1" source="7" target="11">
                    <mxGeometry relative="1" as="geometry"/>
                </mxCell>
                <mxCell id="7" value="Store and Retrieve recordings" style="ellipse;fontSize=7;fillColor=none;" vertex="1" parent="1">
                    <mxGeometry x="150" y="40" width="100" height="55" as="geometry"/>
                </mxCell>
                <mxCell id="8" style="edgeStyle=none;html=1;exitX=1;exitY=0.5;exitDx=0;exitDy=0;entryX=0.5;entryY=0.5;entryDx=0;entryDy=0;entryPerimeter=0;fontSize=7;" edge="1" parent="1" source="10" target="12">
                    <mxGeometry relative="1" as="geometry"/>
                </mxCell>
                <mxCell id="17" style="edgeStyle=none;html=1;exitX=1;exitY=0.5;exitDx=0;exitDy=0;entryX=0.5;entryY=0.5;entryDx=0;entryDy=0;entryPerimeter=0;" edge="1" parent="1" source="10" target="16">
                    <mxGeometry relative="1" as="geometry"/>
                </mxCell>
                <mxCell id="10" value="Provide Storage paths" style="ellipse;fontSize=7;fillColor=none;" vertex="1" parent="1">
                    <mxGeometry x="150" y="165" width="100" height="55" as="geometry"/>
                </mxCell>
                <mxCell id="11" value="Amazon S3 Storage" style="shape=umlActor;verticalLabelPosition=bottom;verticalAlign=top;html=1;fillColor=none;" vertex="1" parent="1">
                    <mxGeometry x="370" y="25" width="30" height="60" as="geometry"/>
                </mxCell>
                <mxCell id="12" value="Amazon Amplify" style="shape=umlActor;verticalLabelPosition=bottom;verticalAlign=top;html=1;fillColor=none;" vertex="1" parent="1">
                    <mxGeometry x="370" y="122.5" width="30" height="60" as="geometry"/>
                </mxCell>
                <mxCell id="13" value="Storage and Data Upload Component" style="html=1;align=center;verticalAlign=top;rounded=1;absoluteArcSize=1;arcSize=10;dashed=0;fontSize=7;glass=0;opacity=60;strokeColor=#FFFFFF;fillColor=none;" vertex="1" parent="1">
                    <mxGeometry x="130" y="12.5" width="140" height="230" as="geometry"/>
                </mxCell>
                <mxCell id="20" style="edgeStyle=none;html=1;exitX=0.5;exitY=0.5;exitDx=0;exitDy=0;exitPerimeter=0;entryX=0;entryY=0.5;entryDx=0;entryDy=0;" edge="1" parent="1" source="14" target="19">
                    <mxGeometry relative="1" as="geometry"/>
                </mxCell>
                <mxCell id="14" value="Video and Audio&lt;br&gt;Recording Component" style="shape=umlActor;verticalLabelPosition=bottom;verticalAlign=top;html=1;fillColor=none;" vertex="1" parent="1">
                    <mxGeometry x="50" y="20" width="30" height="60" as="geometry"/>
                </mxCell>
                <mxCell id="16" value="Amazon Dynamo DB" style="shape=umlActor;verticalLabelPosition=bottom;verticalAlign=top;html=1;fillColor=none;" vertex="1" parent="1">
                    <mxGeometry x="370" y="220" width="30" height="60" as="geometry"/>
                </mxCell>
                <mxCell id="21" style="edgeStyle=none;html=1;exitX=1;exitY=0.5;exitDx=0;exitDy=0;entryX=0.5;entryY=0.5;entryDx=0;entryDy=0;entryPerimeter=0;" edge="1" parent="1" source="19" target="16">
                    <mxGeometry relative="1" as="geometry"/>
                </mxCell>
                <mxCell id="19" value="Store Categorization tags" style="ellipse;fontSize=7;fillColor=none;" vertex="1" parent="1">
                    <mxGeometry x="150" y="100" width="100" height="55" as="geometry"/>
                </mxCell>
            </root>
        </mxGraphModel>
    </diagram>
</mxfile>